#N canvas 601 235 479 357 10;
#X floatatom 44 42 5 0 0 0 x - -, f 5;
#X floatatom 44 59 5 0 0 0 y - -, f 5;
#X floatatom 44 76 5 0 0 0 z - -, f 5;
#X obj 90 13 unpack 0 0 0;
#X floatatom 207 232 5 0 0 0 x - -, f 5;
#X floatatom 207 248 5 0 0 0 y - -, f 5;
#X floatatom 207 265 5 0 0 0 z - -, f 5;
#X obj 257 232 unpack 0 0 0;
#X floatatom 207 285 5 0 0 0 wdt - -, f 5;
#X floatatom 207 301 5 0 0 0 len - -, f 5;
#X obj 256 286 unpack 0 0;
#X floatatom 121 129 5 0 0 0 x - -, f 5;
#X floatatom 121 145 5 0 0 0 y - -, f 5;
#X floatatom 121 162 5 0 0 0 z - -, f 5;
#X obj 172 118 unpack 0 0 0;
#X obj 174 30 inlet;
#X obj 174 81 route direction /pos velocity size;
#X obj 174 55 OSCparse /\$1;
#X text 105 112 position;
#X obj 73 217 pack f f f;
#X obj 77 261 outlet;
#X connect 3 0 0 0;
#X connect 3 1 1 0;
#X connect 3 2 2 0;
#X connect 7 0 4 0;
#X connect 7 1 5 0;
#X connect 7 2 6 0;
#X connect 10 0 8 0;
#X connect 10 1 9 0;
#X connect 11 0 19 0;
#X connect 12 0 19 1;
#X connect 13 0 19 2;
#X connect 14 0 11 0;
#X connect 14 1 12 0;
#X connect 14 2 13 0;
#X connect 15 0 17 0;
#X connect 16 0 3 0;
#X connect 16 1 14 0;
#X connect 16 2 7 0;
#X connect 16 3 10 0;
#X connect 17 0 16 0;
#X connect 19 0 20 0;
#X coords 0 -1 1 1 60 80 1 100 100;
