#N canvas 0 22 728 550 10;
#N canvas 739 22 582 527 clone 0;
#X obj 268 138 r masterclock;
#X obj 268 177 spigot;
#X obj 368 88 loadbang;
#X msg 368 160 1;
#X obj 174 336 f \$1;
#X obj 268 235 f 1;
#X obj 367 196 r closegate;
#X msg 367 218 0;
#X obj 412 132 r opengate;
#X obj 268 257 sel 1;
#X obj 348 333 s closegate;
#X msg 332 257 0;
#X msg 288 319 2000;
#X obj 268 279 t b b b b;
#X obj 288 341 t b f;
#X obj 288 363 delay;
#X msg 213 279 1;
#X obj 174 358 print;
#X connect 0 0 1 0;
#X connect 1 0 5 0;
#X connect 2 0 3 0;
#X connect 3 0 1 1;
#X connect 4 0 17 0;
#X connect 5 0 9 0;
#X connect 6 0 7 0;
#X connect 7 0 1 1;
#X connect 8 0 3 0;
#X connect 9 0 13 0;
#X connect 11 0 5 1;
#X connect 12 0 14 0;
#X connect 13 0 4 0;
#X connect 13 1 12 0;
#X connect 13 2 11 0;
#X connect 13 3 10 0;
#X connect 14 0 15 0;
#X connect 15 0 16 0;
#X connect 16 0 5 1;
#X restore 451 231 pd clone grainclone~ 200;
#X msg 442 139 vis 100 1;
#X obj 125 91 metro 1000;
#X obj 125 113 t b b b;
#X obj 125 215 s masterclock;
#X obj 148 163 s opengate;
#X obj 130 61 tgl 15 0 empty empty empty 17 7 0 10 -262144 -1 -1 0
1;
#X floatatom 215 55 5 0 0 0 - - -, f 5;
#X connect 2 0 3 0;
#X connect 3 0 4 0;
#X connect 3 1 5 0;
#X connect 6 0 2 0;
#X connect 7 0 2 1;
