#N canvas 547 22 1095 826 10;
#X obj 89 245 bng 15 250 50 0 empty empty empty 17 7 0 10 -262144 -1
-1;
#X obj 89 181 tgl 30 0 empty empty empty 17 7 0 10 -262144 -1 -1 0
1;
#X obj 89 219 metro 50;
#X msg 145 219 info;
#X obj 187 291 leapmotion;
#X obj 215 331 route hand tool;
#N canvas 1417 164 793 547 flags 0;
#X obj 89 77 tgl 15 0 empty to_general general 17 7 0 10 -262144 -1
-1 0 1;
#X obj 109 177 tgl 15 0 empty to_palm_position palm_position 17 7 0
10 -262144 -1 -1 1 1;
#X obj 110 312 tgl 15 0 empty to_fingers_position position 17 7 0 10
-262144 -1 -1 1 1;
#X obj 384 169 tgl 15 0 empty to_tools_position position 17 7 0 10
-262144 -1 -1 0 1;
#X obj 125 404 tgl 15 0 empty to_fingers_size size 17 7 0 10 -262144
-1 -1 0 1;
#X obj 384 201 tgl 15 0 empty to_tools_size size 17 7 0 10 -262144
-1 -1 0 1;
#X obj 384 185 tgl 15 0 empty to_tools_velocity velocity 17 7 0 10
-262144 -1 -1 0 1;
#X obj 125 388 tgl 15 0 empty to_fingers_velocity velocity 17 7 0 10
-262144 -1 -1 0 1;
#X obj 109 162 tgl 15 0 empty to_direction direction 17 7 0 10 -262144
-1 -1 1 1;
#X obj 109 220 tgl 15 0 empty to_sphere_radius sphere_radius 17 7 0
10 -262144 -1 -1 1 1;
#X obj 109 235 tgl 15 0 empty to_sphere_center sphere_center 17 7 0
10 -262144 -1 -1 1 1;
#X obj 109 250 tgl 15 0 empty to_finger_count finger_count 17 7 0 10
-262144 -1 -1 1 1;
#X obj 66 429 tgl 15 0 empty to_tool_count tool_count 17 7 0 10 -262144
-1 -1 0 1;
#X obj 109 191 tgl 15 0 empty to_palm_velocity palm_velocity 17 7 0
10 -262144 -1 -1 0 1;
#X obj 109 206 tgl 15 0 empty to_palm_normal palm_normal 17 7 0 10
-262144 -1 -1 0 1;
#X obj -49 463 outlet;
#X msg -49 133 general \$1;
#X msg -50 177 hands_direction \$1;
#X msg -48 236 hands_sphere_radius \$1;
#X msg -48 251 hands_sphere_center \$1;
#X msg -48 266 hands_finger_count \$1;
#X msg -48 280 hands_tool_count \$1;
#X msg -50 192 hands_palm_position \$1;
#X msg -49 206 hands_palm_velocity \$1;
#X msg -48 220 hands_palm_normal \$1;
#X msg -49 359 fingers_size \$1;
#X obj 359 427 list prepend gestures;
#X obj 359 450 list trim;
#X msg 367 282 tools_size \$1;
#X msg -49 327 fingers_position \$1;
#X msg -49 345 fingers_velocity \$1;
#X msg 367 251 tools_position \$1;
#X msg 367 266 tools_velocity \$1;
#X msg 359 312 TYPE_CIRCLE \$1;
#X msg 359 343 TYPE_KEY_TAP \$1;
#X msg 359 358 TYPE_SCREEN_TAP \$1;
#X msg 359 328 TYPE_SWIPE \$1;
#X obj 249 393 tgl 15 0 empty to_gestures_circle circle 17 7 0 10 -262144
-1 -1 0 1;
#X obj 249 423 tgl 15 0 empty to_gestures_key_tap key_tap 17 7 0 10
-262144 -1 -1 0 1;
#X obj 249 438 tgl 15 0 empty to_gestures_screen_tap screen_tap 17
7 0 10 -262144 -1 -1 0 1;
#X obj 249 408 tgl 15 0 empty to_gestures_swipe swipe 17 7 0 10 -262144
-1 -1 0 1;
#X obj 123 420 tgl 15 0 empty to_fingers_direction direction 17 7 0
10 -262144 -1 -1 0 1;
#X msg -49 310 fingers_direction \$1;
#X text 108 140 hands;
#X text 65 443 fingers;
#X text 247 374 gestures;
#X text 383 136 tools;
#X obj 384 153 tgl 15 0 empty to_tools_direction direction 17 7 0 10
-262144 -1 -1 0 1;
#X msg 367 235 tools_direction \$1;
#X obj 172 107 tgl 15 0 empty empty all_on/off 17 7 0 10 -258113 -1
-1 0 1;
#X msg 544 128 \; to_general \$1 \; to_direction \$1 \; to_palm_position
\$1 \; to_palm_velocity \$1 \; to_palm_normal \$1 \; to_sphere_radius
\$1 \; to_sphere_center \$1 \; to_finger_count \$1 \; to_tool_count
\$1 \; to_fingers_direction \$1 \; to_fingers_position \$1 \; to_fingers_velocity
\$1 \; to_fingers_size \$1 \; to_tools_direction \$1 \; to_tools_position
\$1 \; to_tools_velocity \$1 \; to_tools_size \$1 \; to_gestures_circle
\$1 \; to_gestures_swipe \$1 \; to_gestures_key_tap \$1 \; to_gestures_screen_tap
\$1 \;;
#X obj 25 49 loadbang1 1;
#X obj 170 24 bng 15 250 50 0 empty empty empty 17 7 0 10 -262144 -1
-1;
#X text 116 291 finger;
#X connect 0 0 16 0;
#X connect 1 0 22 0;
#X connect 2 0 29 0;
#X connect 3 0 31 0;
#X connect 4 0 25 0;
#X connect 5 0 28 0;
#X connect 6 0 32 0;
#X connect 7 0 30 0;
#X connect 8 0 17 0;
#X connect 9 0 18 0;
#X connect 10 0 19 0;
#X connect 11 0 20 0;
#X connect 12 0 21 0;
#X connect 13 0 23 0;
#X connect 14 0 24 0;
#X connect 16 0 15 0;
#X connect 17 0 15 0;
#X connect 18 0 15 0;
#X connect 19 0 15 0;
#X connect 20 0 15 0;
#X connect 21 0 15 0;
#X connect 22 0 15 0;
#X connect 23 0 15 0;
#X connect 24 0 15 0;
#X connect 25 0 15 0;
#X connect 26 0 27 0;
#X connect 27 0 15 0;
#X connect 28 0 15 0;
#X connect 29 0 15 0;
#X connect 30 0 15 0;
#X connect 31 0 15 0;
#X connect 32 0 15 0;
#X connect 33 0 26 0;
#X connect 34 0 26 0;
#X connect 35 0 26 0;
#X connect 36 0 26 0;
#X connect 37 0 33 0;
#X connect 38 0 34 0;
#X connect 39 0 35 0;
#X connect 40 0 36 0;
#X connect 41 0 42 0;
#X connect 42 0 15 0;
#X connect 47 0 48 0;
#X connect 48 0 15 0;
#X connect 49 0 50 0;
#X connect 51 0 8 0;
#X connect 51 0 1 0;
#X connect 51 0 9 0;
#X connect 51 0 10 0;
#X connect 51 0 11 0;
#X connect 51 0 2 0;
#X connect 52 0 51 0;
#X coords 0 -1 1 1 150 270 1 100 100;
#X restore 187 -6 pd flags;
#X obj 297 308 s gesture;
#N canvas 415 24 450 300 general 0;
#X obj 169 75 unpack 0 0 0 0 0 0;
#X floatatom 169 122 10 0 0 0 frameID - -, f 10;
#X floatatom 169 142 10 0 0 0 timestamp - -, f 10;
#X floatatom 169 162 5 0 0 0 hands - -, f 5;
#X floatatom 169 182 5 0 0 0 fingers - -, f 5;
#X floatatom 169 202 5 0 0 0 tools - -, f 5;
#X floatatom 169 222 5 0 0 0 gestures - -, f 5;
#X obj 169 49 r general;
#X connect 0 0 1 0;
#X connect 0 1 2 0;
#X connect 0 2 3 0;
#X connect 0 3 4 0;
#X connect 0 4 5 0;
#X connect 0 5 6 0;
#X connect 7 0 0 0;
#X coords 0 -1 1 1 150 140 1 100 100;
#X restore 35 -6 pd general;
#X obj 113 308 s general;
#X obj 260 355 s tool;
#X obj 479 41 hand 0;
#X obj 395 607 OSCrx 13000;
#X obj 367 251 OSCparse /hand/0;
#X obj 385 287 OSCparse /hand/1;
#X obj 214 380 route 0 1;
#N canvas 1431 307 950 770 messFormat 0;
#X obj 77 26 inlet;
#X obj 48 297 OSCprepend /pos;
#X obj 150 300 OSCprepend /direction;
#X obj 288 303 OSCprepend /sphere/pos;
#X obj 440 304 OSCprepend /sphere/radius;
#X obj 68 61 route palm_position direction sphere_center sphere_radius
finger_count;
#X obj 615 305 OSCprepend /finger_count;
#X obj 144 479 outlet;
#X obj 614 382 route fingers;
#X obj 612 414 t l l;
#X obj 604 634 list prepend;
#X obj 612 455 list split 1;
#X obj 713 435 list split 1;
#X msg 681 578 /finger/\$1/pos;
#X obj 649 542 route position;
#X obj 667 493 list trim;
#X obj 604 683 list trim;
#X connect 0 0 5 0;
#X connect 1 0 7 0;
#X connect 2 0 7 0;
#X connect 3 0 7 0;
#X connect 4 0 7 0;
#X connect 5 0 1 0;
#X connect 5 1 2 0;
#X connect 5 2 3 0;
#X connect 5 3 4 0;
#X connect 5 4 6 0;
#X connect 5 5 8 0;
#X connect 6 0 7 0;
#X connect 8 0 9 0;
#X connect 9 0 11 0;
#X connect 9 1 12 0;
#X connect 10 0 16 0;
#X connect 11 1 15 0;
#X connect 12 0 13 0;
#X connect 13 0 10 1;
#X connect 14 0 10 0;
#X connect 15 0 14 0;
#X connect 16 0 7 0;
#X restore 213 420 pd messFormat;
#X obj 213 456 OSCprepend /hand/0;
#N canvas 1431 307 950 770 messFormat 0;
#X obj 77 26 inlet;
#X obj 48 297 OSCprepend /pos;
#X obj 150 300 OSCprepend /direction;
#X obj 288 303 OSCprepend /sphere/pos;
#X obj 440 304 OSCprepend /sphere/radius;
#X obj 68 61 route palm_position direction sphere_center sphere_radius
finger_count;
#X obj 615 305 OSCprepend /finger_count;
#X obj 144 479 outlet;
#X obj 614 382 route fingers;
#X obj 612 414 t l l;
#X obj 604 634 list prepend;
#X obj 612 455 list split 1;
#X obj 713 435 list split 1;
#X msg 681 578 /finger/\$1/pos;
#X obj 649 542 route position;
#X obj 667 493 list trim;
#X obj 604 683 list trim;
#X connect 0 0 5 0;
#X connect 1 0 7 0;
#X connect 2 0 7 0;
#X connect 3 0 7 0;
#X connect 4 0 7 0;
#X connect 5 0 1 0;
#X connect 5 1 2 0;
#X connect 5 2 3 0;
#X connect 5 3 4 0;
#X connect 5 4 6 0;
#X connect 5 5 8 0;
#X connect 6 0 7 0;
#X connect 8 0 9 0;
#X connect 9 0 11 0;
#X connect 9 1 12 0;
#X connect 10 0 16 0;
#X connect 11 1 15 0;
#X connect 12 0 13 0;
#X connect 13 0 10 1;
#X connect 14 0 10 0;
#X connect 15 0 14 0;
#X connect 16 0 7 0;
#X restore 339 419 pd messFormat;
#X obj 339 448 OSCprepend /hand/1;
#X obj 218 586 OSCtx;
#X msg 277 532 connect localhost 13000;
#X obj 218 626 tgl 30 0 empty empty empty 17 7 0 10 -262144 -1 -1 11886
11236;
#X obj 218 532 spigot;
#X obj 276 501 loadbang;
#X obj 481 308 hand 1;
#X text 500 608 /hand/n/pos x y z;
#X text 497 625 /hand/n/direction x y z;
#X text 497 642 /hand/n/pry pitch roll yaw;
#X text 500 660 /hand/n/grab amount;
#X text 498 677 /hand/n/pinch amount;
#X text 498 694 /hand/n/finger_count count;
#X text 497 709 /hand/n/sphere/pos x y z;
#X text 496 726 /hand/n/sphere/radius r;
#X text 495 739 /hand/n/finger/n/pos;
#X text 392 583 OSC MESSAGES RX from Leap (port 13000);
#X obj 395 632 s \$0-fromLeap;
#X obj 367 226 r \$0-fromLeap;
#X connect 0 0 4 0;
#X connect 1 0 2 0;
#X connect 2 0 0 0;
#X connect 3 0 4 0;
#X connect 4 0 9 0;
#X connect 4 1 5 0;
#X connect 4 2 7 0;
#X connect 5 0 15 0;
#X connect 5 1 10 0;
#X connect 6 0 4 0;
#X connect 12 0 36 0;
#X connect 13 0 11 0;
#X connect 13 1 14 0;
#X connect 14 0 25 0;
#X connect 15 0 16 0;
#X connect 15 1 18 0;
#X connect 16 0 17 0;
#X connect 17 0 23 0;
#X connect 18 0 19 0;
#X connect 19 0 23 0;
#X connect 20 0 22 0;
#X connect 21 0 20 0;
#X connect 22 0 23 1;
#X connect 23 0 20 0;
#X connect 24 0 21 0;
#X connect 37 0 13 0;
