#N canvas 85 29 703 722 10;
#X obj 98 572 *~;
#X obj 98 599 outlet~;
#X obj 99 72 inlet midi;
#X obj 99 120 unpack;
#X obj 99 150 mtof;
#X obj 99 177 sig~;
#X obj 171 226 *~;
#X obj 368 461 r adsr_ctrl;
#X obj 368 488 unpack f f f f;
#X obj 325 513 adsrmod1~ 10 250 0.3 500;
#X obj 171 273 *~;
#X obj 296 248 *~;
#X obj 99 522 +~;
#X obj 330 224 *~;
#X obj 156 349 *~;
#X obj 257 323 *~;
#X obj 307 301 *~;
#X obj 156 301 +~;
#X obj 139 428 *~;
#X obj 240 402 *~;
#X obj 288 383 *~;
#X obj 139 380 +~;
#X obj 124 505 *~;
#X obj 225 479 *~;
#X obj 255 457 *~;
#X obj 124 457 +~;
#X obj 236 90 r ratio;
#X obj 339 99 r index1;
#X obj 379 162 r index2;
#X obj 437 226 r index3;
#X obj 518 280 r index4;
#X obj 99 544 tabosc4~ port;
#X obj 171 248 tabosc4~ mod1;
#X obj 156 324 tabosc4~ mod1;
#X obj 139 403 tabosc4~ mod2;
#X obj 124 480 tabosc4~ mod2;
#X obj 236 157 line~;
#X obj 236 128 pack f 50;
#X obj 339 138 line~;
#X obj 339 119 pack f 50;
#X obj 379 224 line~;
#X obj 437 278 line~;
#X obj 518 333 line~;
#X obj 379 184 pack f 50;
#X obj 437 248 pack f 50;
#X obj 518 302 pack f 50;
#X connect 0 0 1 0;
#X connect 2 0 3 0;
#X connect 3 0 4 0;
#X connect 3 1 9 0;
#X connect 4 0 5 0;
#X connect 5 0 6 0;
#X connect 5 0 12 0;
#X connect 5 0 17 0;
#X connect 5 0 21 0;
#X connect 5 0 25 0;
#X connect 6 0 11 0;
#X connect 6 0 32 0;
#X connect 7 0 8 0;
#X connect 8 0 9 1;
#X connect 8 1 9 2;
#X connect 8 2 9 3;
#X connect 8 3 9 4;
#X connect 9 0 0 1;
#X connect 9 0 13 1;
#X connect 9 0 16 1;
#X connect 9 0 20 1;
#X connect 9 0 24 1;
#X connect 10 0 17 1;
#X connect 11 0 10 1;
#X connect 12 0 31 0;
#X connect 13 0 11 1;
#X connect 14 0 21 1;
#X connect 15 0 14 1;
#X connect 16 0 15 1;
#X connect 17 0 15 0;
#X connect 17 0 33 0;
#X connect 18 0 25 1;
#X connect 19 0 18 1;
#X connect 20 0 19 1;
#X connect 21 0 19 0;
#X connect 21 0 34 0;
#X connect 22 0 12 1;
#X connect 23 0 22 1;
#X connect 24 0 23 1;
#X connect 25 0 23 0;
#X connect 25 0 35 0;
#X connect 26 0 37 0;
#X connect 27 0 39 0;
#X connect 28 0 43 0;
#X connect 29 0 44 0;
#X connect 30 0 45 0;
#X connect 31 0 0 0;
#X connect 32 0 10 0;
#X connect 33 0 14 0;
#X connect 34 0 18 0;
#X connect 35 0 22 0;
#X connect 36 0 6 1;
#X connect 37 0 36 0;
#X connect 38 0 13 0;
#X connect 39 0 38 0;
#X connect 40 0 16 0;
#X connect 41 0 20 0;
#X connect 42 0 24 0;
#X connect 43 0 40 0;
#X connect 44 0 41 0;
#X connect 45 0 42 0;
