#N canvas 151 35 703 722 10;
#X obj 98 572 *~;
#X obj 98 599 outlet~;
#X obj 99 72 inlet midi;
#X obj 99 120 unpack;
#X obj 99 150 mtof;
#X obj 99 177 sig~;
#X obj 171 226 *~;
#X obj 171 273 *~;
#X obj 296 248 *~;
#X obj 99 522 +~;
#X obj 330 224 *~;
#X obj 156 349 *~;
#X obj 257 323 *~;
#X obj 307 301 *~;
#X obj 156 301 +~;
#X obj 139 428 *~;
#X obj 240 402 *~;
#X obj 288 383 *~;
#X obj 139 380 +~;
#X obj 124 505 *~;
#X obj 225 479 *~;
#X obj 255 457 *~;
#X obj 124 457 +~;
#X obj 339 61 r index1;
#X obj 426 70 r index2;
#X obj 517 109 r index3;
#X obj 584 181 r index4;
#X obj 99 544 tabosc4~ port;
#X obj 171 248 tabosc4~ mod1;
#X obj 156 324 tabosc4~ mod1;
#X obj 139 403 tabosc4~ mod2;
#X obj 124 480 tabosc4~ mod2;
#X obj 860 432 / 127;
#X obj 599 407 sel 0;
#X obj 599 485 pack 0 500;
#X obj 599 527 line~;
#X obj 860 502 pack f 5;
#X obj 599 554 *~;
#X obj 598 581 *~;
#X obj 945 477 r \$1-fadein;
#X obj 696 444 r \$1-fadeout;
#X obj 232 77 r ratio;
#X obj 231 117 line~;
#X obj 231 98 pack f 50;
#X obj 336 104 line~;
#X obj 336 85 pack f 50;
#X obj 421 132 line~;
#X obj 421 113 pack f 50;
#X obj 505 174 line~;
#X obj 505 155 pack f 50;
#X obj 584 229 line~;
#X obj 584 210 pack f 50;
#X connect 0 0 1 0;
#X connect 2 0 3 0;
#X connect 3 0 4 0;
#X connect 3 1 33 0;
#X connect 4 0 5 0;
#X connect 5 0 6 0;
#X connect 5 0 9 0;
#X connect 5 0 14 0;
#X connect 5 0 18 0;
#X connect 5 0 22 0;
#X connect 6 0 8 0;
#X connect 6 0 28 0;
#X connect 7 0 14 1;
#X connect 8 0 7 1;
#X connect 9 0 27 0;
#X connect 10 0 8 1;
#X connect 11 0 18 1;
#X connect 12 0 11 1;
#X connect 13 0 12 1;
#X connect 14 0 12 0;
#X connect 14 0 29 0;
#X connect 15 0 22 1;
#X connect 16 0 15 1;
#X connect 17 0 16 1;
#X connect 18 0 16 0;
#X connect 18 0 30 0;
#X connect 19 0 9 1;
#X connect 20 0 19 1;
#X connect 21 0 20 1;
#X connect 22 0 20 0;
#X connect 22 0 31 0;
#X connect 23 0 45 0;
#X connect 24 0 47 0;
#X connect 25 0 49 0;
#X connect 26 0 51 0;
#X connect 27 0 0 0;
#X connect 28 0 7 0;
#X connect 29 0 11 0;
#X connect 30 0 15 0;
#X connect 31 0 19 0;
#X connect 32 0 36 0;
#X connect 33 0 34 0;
#X connect 33 1 32 0;
#X connect 34 0 35 0;
#X connect 35 0 37 1;
#X connect 35 0 37 0;
#X connect 36 0 35 0;
#X connect 37 0 38 1;
#X connect 37 0 38 0;
#X connect 38 0 10 1;
#X connect 38 0 13 1;
#X connect 38 0 17 1;
#X connect 38 0 21 1;
#X connect 38 0 0 1;
#X connect 39 0 36 1;
#X connect 40 0 34 1;
#X connect 41 0 43 0;
#X connect 42 0 6 1;
#X connect 43 0 42 0;
#X connect 44 0 10 0;
#X connect 45 0 44 0;
#X connect 46 0 13 0;
#X connect 47 0 46 0;
#X connect 48 0 17 0;
#X connect 49 0 48 0;
#X connect 50 0 21 0;
#X connect 51 0 50 0;
